<?xml version="1.0" encoding="UTF-8" standalone="no"?><svg xmlns="http://www.w3.org/2000/svg" xmlns:xlink="http://www.w3.org/1999/xlink" contentScriptType="application/ecmascript" contentStyleType="text/css" height="538px" preserveAspectRatio="none" style="width:527px;height:538px;" version="1.1" viewBox="0 0 527 538" width="527px" zoomAndPan="magnify"><defs><filter height="300%" id="frd1s0omekyy8" width="300%" x="-1" y="-1"><feGaussianBlur result="blurOut" stdDeviation="2.0"/><feColorMatrix in="blurOut" result="blurOut2" type="matrix" values="0 0 0 0 0 0 0 0 0 0 0 0 0 0 0 0 0 0 .4 0"/><feOffset dx="4.0" dy="4.0" in="blurOut2" result="blurOut3"/><feBlend in="SourceGraphic" in2="blurOut3" mode="normal"/></filter></defs><g><!--MD5=[46ee3b214b8888a13ae7c95775684973]
class org--><rect fill="#FEFECE" filter="url(#frd1s0omekyy8)" height="65.5781" id="org" style="stroke: #A80036; stroke-width: 1.5;" width="84" x="150" y="8"/><text fill="#000000" font-family="sans-serif" font-size="12" lengthAdjust="spacingAndGlyphs" textLength="78" x="153" y="24.1387">Organization</text><line style="stroke: #A80036; stroke-width: 1.5;" x1="151" x2="233" y1="31.9688" y2="31.9688"/><text fill="#000000" font-family="sans-serif" font-size="11" lengthAdjust="spacingAndGlyphs" textLength="62" x="156" y="46.1792">id : integer</text><line style="stroke: #A80036; stroke-width: 1.0;" x1="151" x2="233" y1="52.7734" y2="52.7734"/><text fill="#000000" font-family="sans-serif" font-size="11" lengthAdjust="spacingAndGlyphs" textLength="65" x="156" y="66.9839">name : text</text><!--MD5=[0d63622358f95bfe0826679c8ae5824a]
class che--><rect fill="#FEFECE" filter="url(#frd1s0omekyy8)" height="91.1875" id="che" style="stroke: #A80036; stroke-width: 1.5;" width="149" x="82.5" y="134"/><text fill="#000000" font-family="sans-serif" font-size="12" lengthAdjust="spacingAndGlyphs" textLength="56" x="129" y="150.1387">Checklist</text><line style="stroke: #A80036; stroke-width: 1.5;" x1="83.5" x2="230.5" y1="157.9688" y2="157.9688"/><text fill="#000000" font-family="sans-serif" font-size="11" lengthAdjust="spacingAndGlyphs" textLength="62" x="88.5" y="172.1792">id : integer</text><line style="stroke: #A80036; stroke-width: 1.0;" x1="83.5" x2="230.5" y1="178.7734" y2="178.7734"/><text fill="#000000" font-family="sans-serif" font-size="11" lengthAdjust="spacingAndGlyphs" textLength="137" x="88.5" y="192.9839">organization_id : integer</text><text fill="#000000" font-family="sans-serif" font-size="11" lengthAdjust="spacingAndGlyphs" textLength="65" x="88.5" y="205.7886">name : text</text><text fill="#000000" font-family="sans-serif" font-size="11" lengthAdjust="spacingAndGlyphs" textLength="96" x="88.5" y="218.5933">description : text</text><!--MD5=[4022ebaa90ea056e2b4da54eb17e350b]
class tas--><rect fill="#FEFECE" filter="url(#frd1s0omekyy8)" height="91.1875" id="tas" style="stroke: #A80036; stroke-width: 1.5;" width="129" x="116.5" y="285"/><text fill="#000000" font-family="sans-serif" font-size="12" lengthAdjust="spacingAndGlyphs" textLength="29" x="166.5" y="301.1387">Task</text><line style="stroke: #A80036; stroke-width: 1.5;" x1="117.5" x2="244.5" y1="308.9688" y2="308.9688"/><text fill="#000000" font-family="sans-serif" font-size="11" lengthAdjust="spacingAndGlyphs" textLength="62" x="122.5" y="323.1792">id : integer</text><line style="stroke: #A80036; stroke-width: 1.0;" x1="117.5" x2="244.5" y1="329.7734" y2="329.7734"/><text fill="#000000" font-family="sans-serif" font-size="11" lengthAdjust="spacingAndGlyphs" textLength="117" x="122.5" y="343.9839">checklist_id : integer</text><text fill="#000000" font-family="sans-serif" font-size="11" lengthAdjust="spacingAndGlyphs" textLength="65" x="122.5" y="356.7886">name : text</text><text fill="#000000" font-family="sans-serif" font-size="11" lengthAdjust="spacingAndGlyphs" textLength="96" x="122.5" y="369.5933">description : text</text><!--MD5=[da3e092dd04cd3a43ec23b0ccc0a5737]
class use--><rect fill="#FEFECE" filter="url(#frd1s0omekyy8)" height="52.7734" id="use" style="stroke: #A80036; stroke-width: 1.5;" width="74" x="304" y="14.5"/><text fill="#000000" font-family="sans-serif" font-size="12" lengthAdjust="spacingAndGlyphs" textLength="29" x="326.5" y="30.6387">User</text><line style="stroke: #A80036; stroke-width: 1.5;" x1="305" x2="377" y1="38.4688" y2="38.4688"/><text fill="#000000" font-family="sans-serif" font-size="11" lengthAdjust="spacingAndGlyphs" textLength="62" x="310" y="52.6792">id : integer</text><line style="stroke: #A80036; stroke-width: 1.0;" x1="305" x2="377" y1="59.2734" y2="59.2734"/><!--MD5=[485a597907ed351cb695f5781221c1fd]
class mem--><rect fill="#FEFECE" filter="url(#frd1s0omekyy8)" height="65.5781" id="mem" style="stroke: #A80036; stroke-width: 1.5;" width="149" x="266.5" y="146.5"/><text fill="#000000" font-family="sans-serif" font-size="12" lengthAdjust="spacingAndGlyphs" textLength="132" x="275" y="162.6387">Organization Member</text><line style="stroke: #A80036; stroke-width: 1.5;" x1="267.5" x2="414.5" y1="170.4688" y2="170.4688"/><text fill="#000000" font-family="sans-serif" font-size="11" lengthAdjust="spacingAndGlyphs" textLength="62" x="272.5" y="184.6792">id : integer</text><line style="stroke: #A80036; stroke-width: 1.0;" x1="267.5" x2="414.5" y1="191.2734" y2="191.2734"/><text fill="#000000" font-family="sans-serif" font-size="11" lengthAdjust="spacingAndGlyphs" textLength="137" x="272.5" y="205.4839">organization_id : integer</text><!--MD5=[826beb3f83d9881150b66e4c61a366b6]
class adm--><rect fill="#FEFECE" filter="url(#frd1s0omekyy8)" height="52.7734" id="adm" style="stroke: #A80036; stroke-width: 1.5;" width="126" x="390" y="304"/><text fill="#000000" font-family="sans-serif" font-size="12" lengthAdjust="spacingAndGlyphs" textLength="120" x="393" y="320.1387">Organization Admin</text><line style="stroke: #A80036; stroke-width: 1.5;" x1="391" x2="515" y1="327.9688" y2="327.9688"/><text fill="#000000" font-family="sans-serif" font-size="11" lengthAdjust="spacingAndGlyphs" textLength="62" x="396" y="342.1792">id : integer</text><line style="stroke: #A80036; stroke-width: 1.5;" x1="391" x2="515" y1="348.7734" y2="348.7734"/><!--MD5=[614d5364b576beb0e01da9a0a5bc0029]
class emp--><rect fill="#FEFECE" filter="url(#frd1s0omekyy8)" height="52.7734" id="emp" style="stroke: #A80036; stroke-width: 1.5;" width="74" x="281" y="304"/><text fill="#000000" font-family="sans-serif" font-size="12" lengthAdjust="spacingAndGlyphs" textLength="60" x="288" y="320.1387">Employee</text><line style="stroke: #A80036; stroke-width: 1.5;" x1="282" x2="354" y1="327.9688" y2="327.9688"/><text fill="#000000" font-family="sans-serif" font-size="11" lengthAdjust="spacingAndGlyphs" textLength="62" x="287" y="342.1792">id : integer</text><line style="stroke: #A80036; stroke-width: 1.5;" x1="282" x2="354" y1="348.7734" y2="348.7734"/><!--MD5=[8b64c1d5eba4442a785c8307027c2ea9]
class e_c--><rect fill="#FEFECE" filter="url(#frd1s0omekyy8)" height="78.3828" id="e_c" style="stroke: #A80036; stroke-width: 1.5;" width="168" x="6" y="442.5"/><text fill="#000000" font-family="sans-serif" font-size="12" lengthAdjust="spacingAndGlyphs" textLength="162" x="9" y="458.6387">Employee Joined Checklist</text><line style="stroke: #A80036; stroke-width: 1.5;" x1="7" x2="173" y1="466.4688" y2="466.4688"/><text fill="#000000" font-family="sans-serif" font-size="11" lengthAdjust="spacingAndGlyphs" textLength="62" x="12" y="480.6792">id : integer</text><line style="stroke: #A80036; stroke-width: 1.0;" x1="7" x2="173" y1="487.2734" y2="487.2734"/><text fill="#000000" font-family="sans-serif" font-size="11" lengthAdjust="spacingAndGlyphs" textLength="123" x="12" y="501.4839">employee_id : integer</text><text fill="#000000" font-family="sans-serif" font-size="11" lengthAdjust="spacingAndGlyphs" textLength="117" x="12" y="514.2886">checklist_id : integer</text><!--MD5=[4a9a1cc1e9849a614638b811d401b564]
class e_t--><rect fill="#FEFECE" filter="url(#frd1s0omekyy8)" height="91.1875" id="e_t" style="stroke: #A80036; stroke-width: 1.5;" width="164" x="222" y="436"/><text fill="#000000" font-family="sans-serif" font-size="12" lengthAdjust="spacingAndGlyphs" textLength="158" x="225" y="452.1387">Employee Executing Task</text><line style="stroke: #A80036; stroke-width: 1.5;" x1="223" x2="385" y1="459.9688" y2="459.9688"/><text fill="#000000" font-family="sans-serif" font-size="11" lengthAdjust="spacingAndGlyphs" textLength="62" x="228" y="474.1792">id : integer</text><line style="stroke: #A80036; stroke-width: 1.0;" x1="223" x2="385" y1="480.7734" y2="480.7734"/><text fill="#000000" font-family="sans-serif" font-size="11" lengthAdjust="spacingAndGlyphs" textLength="123" x="228" y="494.9839">employee_id : integer</text><text fill="#000000" font-family="sans-serif" font-size="11" lengthAdjust="spacingAndGlyphs" textLength="92" x="228" y="507.7886">task_id : integer</text><text fill="#000000" font-family="sans-serif" font-size="11" lengthAdjust="spacingAndGlyphs" textLength="69" x="228" y="520.5933">status : text</text><!--MD5=[2b1472ac96303e0e2a0eecc4d4173e3a]
link org to che--><path d="M190.75,82.1742 C190.75,82.1742 190.75,125.7683 190.75,125.7683 " fill="none" id="org-che" style="stroke: #A80036; stroke-width: 1.0; stroke-dasharray: 7.0,7.0;"/><line style="stroke: #A80036; stroke-width: 1.0;" x1="190.75" x2="196.75" y1="125.7683" y2="133.7683"/><line style="stroke: #A80036; stroke-width: 1.0;" x1="190.75" x2="184.75" y1="125.7683" y2="133.7683"/><line style="stroke: #A80036; stroke-width: 1.0;" x1="190.75" x2="190.75" y1="125.7683" y2="133.7683"/><ellipse cx="190.75" cy="119.7683" fill="none" rx="4" ry="4" style="stroke: #A80036; stroke-width: 1.0;"/><line style="stroke: #A80036; stroke-width: 1.0;" x1="186.75" x2="194.75" y1="78.1742" y2="78.1742"/><line style="stroke: #A80036; stroke-width: 1.0;" x1="186.75" x2="194.75" y1="81.1742" y2="81.1742"/><line style="stroke: #A80036; stroke-width: 1.0;" x1="190.75" x2="190.75" y1="82.1742" y2="74.1742"/><!--MD5=[2634b589e62e9ba4b0b3e790015b2c59]
link che to tas--><path d="M174,233.2148 C174,233.2148 174,276.9406 174,276.9406 " fill="none" id="che-tas" style="stroke: #A80036; stroke-width: 1.0; stroke-dasharray: 7.0,7.0;"/><line style="stroke: #A80036; stroke-width: 1.0;" x1="174" x2="180" y1="276.9406" y2="284.9406"/><line style="stroke: #A80036; stroke-width: 1.0;" x1="174" x2="168" y1="276.9406" y2="284.9406"/><line style="stroke: #A80036; stroke-width: 1.0;" x1="174" x2="174" y1="276.9406" y2="284.9406"/><ellipse cx="174" cy="270.9406" fill="none" rx="4" ry="4" style="stroke: #A80036; stroke-width: 1.0;"/><line style="stroke: #A80036; stroke-width: 1.0;" x1="170" x2="178" y1="229.2148" y2="229.2148"/><line style="stroke: #A80036; stroke-width: 1.0;" x1="170" x2="178" y1="232.2148" y2="232.2148"/><line style="stroke: #A80036; stroke-width: 1.0;" x1="174" x2="174" y1="233.2148" y2="225.2148"/><!--MD5=[daf55e4ee0660f5c2a19846c4ef9a0c4]
link use to mem--><path d="M341,67.7042 C341,90.107 341,122.209 341,146.2708 " fill="none" id="use-mem" style="stroke: #A80036; stroke-width: 1.0; stroke-dasharray: 7.0,7.0;"/><!--MD5=[adbf26b28b66de5a76be121a57a74b32]
link mem to adm--><path d="M402.75,212.6376 C402.75,240.0712 402.75,278.5376 402.75,303.9682 " fill="none" id="mem-adm" style="stroke: #A80036; stroke-width: 1.0; stroke-dasharray: 7.0,7.0;"/><!--MD5=[5894b4d8759021bc7445c2417f063d37]
link mem to emp--><path d="M318,212.6376 C318,240.0712 318,278.5376 318,303.9682 " fill="none" id="mem-emp" style="stroke: #A80036; stroke-width: 1.0; stroke-dasharray: 7.0,7.0;"/><!--MD5=[db323e399f4ade3c801a2a283e73ebd0]
link org to mem--><path d="M242.2596,41 C242.2596,41 285.25,41 285.25,41 C285.25,41 285.25,138.3258 285.25,138.3258 " fill="none" id="org-mem" style="stroke: #A80036; stroke-width: 1.0; stroke-dasharray: 7.0,7.0;"/><line style="stroke: #A80036; stroke-width: 1.0;" x1="285.25" x2="291.25" y1="138.3258" y2="146.3258"/><line style="stroke: #A80036; stroke-width: 1.0;" x1="285.25" x2="279.25" y1="138.3258" y2="146.3258"/><line style="stroke: #A80036; stroke-width: 1.0;" x1="285.25" x2="285.25" y1="138.3258" y2="146.3258"/><ellipse cx="285.25" cy="132.3258" fill="none" rx="4" ry="4" style="stroke: #A80036; stroke-width: 1.0;"/><line style="stroke: #A80036; stroke-width: 1.0;" x1="238.2596" x2="238.2596" y1="45" y2="37"/><line style="stroke: #A80036; stroke-width: 1.0;" x1="241.2596" x2="241.2596" y1="45" y2="37"/><line style="stroke: #A80036; stroke-width: 1.0;" x1="242.2596" x2="234.2596" y1="41" y2="41"/><!--MD5=[d74fff557696fd32032e951e12039e9a]
link emp to e_c--><path d="M305.6667,365.3311 C305.6667,365.3311 305.6667,406 305.6667,406 C305.6667,406 145.25,406 145.25,406 C145.25,406 145.25,434.4231 145.25,434.4231 " fill="none" id="emp-e_c" style="stroke: #A80036; stroke-width: 1.0; stroke-dasharray: 7.0,7.0;"/><line style="stroke: #A80036; stroke-width: 1.0;" x1="145.25" x2="151.25" y1="434.4231" y2="442.4231"/><line style="stroke: #A80036; stroke-width: 1.0;" x1="145.25" x2="139.25" y1="434.4231" y2="442.4231"/><line style="stroke: #A80036; stroke-width: 1.0;" x1="145.25" x2="145.25" y1="434.4231" y2="442.4231"/><ellipse cx="145.25" cy="428.4231" fill="none" rx="4" ry="4" style="stroke: #A80036; stroke-width: 1.0;"/><line style="stroke: #A80036; stroke-width: 1.0;" x1="301.6667" x2="309.6667" y1="361.3311" y2="361.3311"/><line style="stroke: #A80036; stroke-width: 1.0;" x1="301.6667" x2="309.6667" y1="364.3311" y2="364.3311"/><line style="stroke: #A80036; stroke-width: 1.0;" x1="305.6667" x2="305.6667" y1="365.3311" y2="357.3311"/><!--MD5=[11a6d32a709ad34204923d86e44c2c10]
link che to e_c--><path d="M99.5,233.0394 C99.5,233.0394 99.5,434.3302 99.5,434.3302 " fill="none" id="che-e_c" style="stroke: #A80036; stroke-width: 1.0; stroke-dasharray: 7.0,7.0;"/><line style="stroke: #A80036; stroke-width: 1.0;" x1="99.5" x2="105.5" y1="434.3302" y2="442.3302"/><line style="stroke: #A80036; stroke-width: 1.0;" x1="99.5" x2="93.5" y1="434.3302" y2="442.3302"/><line style="stroke: #A80036; stroke-width: 1.0;" x1="99.5" x2="99.5" y1="434.3302" y2="442.3302"/><ellipse cx="99.5" cy="428.3302" fill="none" rx="4" ry="4" style="stroke: #A80036; stroke-width: 1.0;"/><line style="stroke: #A80036; stroke-width: 1.0;" x1="95.5" x2="103.5" y1="229.0394" y2="229.0394"/><line style="stroke: #A80036; stroke-width: 1.0;" x1="95.5" x2="103.5" y1="232.0394" y2="232.0394"/><line style="stroke: #A80036; stroke-width: 1.0;" x1="99.5" x2="99.5" y1="233.0394" y2="225.0394"/><!--MD5=[fcccc373a781b328600217ba1496b56e]
link emp to e_t--><path d="M330.3333,365.1482 C330.3333,365.1482 330.3333,427.8806 330.3333,427.8806 " fill="none" id="emp-e_t" style="stroke: #A80036; stroke-width: 1.0; stroke-dasharray: 7.0,7.0;"/><line style="stroke: #A80036; stroke-width: 1.0;" x1="330.3333" x2="336.3333" y1="427.8806" y2="435.8806"/><line style="stroke: #A80036; stroke-width: 1.0;" x1="330.3333" x2="324.3333" y1="427.8806" y2="435.8806"/><line style="stroke: #A80036; stroke-width: 1.0;" x1="330.3333" x2="330.3333" y1="427.8806" y2="435.8806"/><ellipse cx="330.3333" cy="421.8806" fill="none" rx="4" ry="4" style="stroke: #A80036; stroke-width: 1.0;"/><line style="stroke: #A80036; stroke-width: 1.0;" x1="326.3333" x2="334.3333" y1="361.1482" y2="361.1482"/><line style="stroke: #A80036; stroke-width: 1.0;" x1="326.3333" x2="334.3333" y1="364.1482" y2="364.1482"/><line style="stroke: #A80036; stroke-width: 1.0;" x1="330.3333" x2="330.3333" y1="365.1482" y2="357.1482"/><!--MD5=[181d125c2b86d5e414f6fec0a30e8d4c]
link tas to e_t--><path d="M233.75,384.2148 C233.75,384.2148 233.75,427.9406 233.75,427.9406 " fill="none" id="tas-e_t" style="stroke: #A80036; stroke-width: 1.0; stroke-dasharray: 7.0,7.0;"/><line style="stroke: #A80036; stroke-width: 1.0;" x1="233.75" x2="239.75" y1="427.9406" y2="435.9406"/><line style="stroke: #A80036; stroke-width: 1.0;" x1="233.75" x2="227.75" y1="427.9406" y2="435.9406"/><line style="stroke: #A80036; stroke-width: 1.0;" x1="233.75" x2="233.75" y1="427.9406" y2="435.9406"/><ellipse cx="233.75" cy="421.9406" fill="none" rx="4" ry="4" style="stroke: #A80036; stroke-width: 1.0;"/><line style="stroke: #A80036; stroke-width: 1.0;" x1="229.75" x2="237.75" y1="380.2148" y2="380.2148"/><line style="stroke: #A80036; stroke-width: 1.0;" x1="229.75" x2="237.75" y1="383.2148" y2="383.2148"/><line style="stroke: #A80036; stroke-width: 1.0;" x1="233.75" x2="233.75" y1="384.2148" y2="376.2148"/><!--MD5=[7b08404e6892b139e4649ec6e54c7fc5]
@startuml

hide circle

skinparam linetype ortho

entity "Organization" as org {
  id : integer
  - -
  name : text
}

entity "Checklist" as che {
  id : integer
  - -
  organization_id : integer
  name : text
  description : text
}

entity "Task" as tas {
  id : integer
  - -
  checklist_id : integer
  name : text
  description : text
}

entity "User" as use {
  id : integer
  - -
}

entity "Organization Member" as mem {
  id : integer
  - -
  organization_id : integer
}

entity "Organization Admin" as adm {
  id : integer
}

entity "Employee" as emp {
  id : integer
}

entity "Employee Joined Checklist" as e_c {
  id : integer
  - -
  employee_id : integer
  checklist_id : integer
}

entity "Employee Executing Task" as e_t {
  id : integer
  - -
  employee_id : integer
  task_id : integer
  status : text
}

org ||..o{ che
che ||..o{ tas

use .. mem
mem .. adm
mem .. emp

org ||..o{ mem
emp ||..o{ e_c
che ||..o{ e_c
emp ||..o{ e_t
tas ||..o{ e_t

@enduml

PlantUML version 1.2020.06(Sun Apr 05 12:38:32 GMT 2020)
(GPL source distribution)
Java Runtime: OpenJDK Runtime Environment
JVM: OpenJDK 64-Bit Server VM
Java Version: 14-ea+33
Operating System: Linux
Default Encoding: UTF-8
Language: en
Country: US
--></g></svg>