<?xml version="1.0" encoding="UTF-8" standalone="no"?><svg xmlns="http://www.w3.org/2000/svg" xmlns:xlink="http://www.w3.org/1999/xlink" contentScriptType="application/ecmascript" contentStyleType="text/css" height="538px" preserveAspectRatio="none" style="width:576px;height:538px;" version="1.1" viewBox="0 0 576 538" width="576px" zoomAndPan="magnify"><defs><filter height="300%" id="f1ojxp4qmxaio" width="300%" x="-1" y="-1"><feGaussianBlur result="blurOut" stdDeviation="2.0"/><feColorMatrix in="blurOut" result="blurOut2" type="matrix" values="0 0 0 0 0 0 0 0 0 0 0 0 0 0 0 0 0 0 .4 0"/><feOffset dx="4.0" dy="4.0" in="blurOut2" result="blurOut3"/><feBlend in="SourceGraphic" in2="blurOut3" mode="normal"/></filter></defs><g><!--MD5=[46ee3b214b8888a13ae7c95775684973]
class org--><rect fill="#FEFECE" filter="url(#f1ojxp4qmxaio)" height="65.5781" id="org" style="stroke: #A80036; stroke-width: 1.5;" width="84" x="283.5" y="8"/><text fill="#000000" font-family="sans-serif" font-size="12" lengthAdjust="spacingAndGlyphs" textLength="78" x="286.5" y="24.1387">Organization</text><line style="stroke: #A80036; stroke-width: 1.5;" x1="284.5" x2="366.5" y1="31.9688" y2="31.9688"/><text fill="#000000" font-family="sans-serif" font-size="11" lengthAdjust="spacingAndGlyphs" textLength="62" x="289.5" y="46.1792">id : integer</text><line style="stroke: #A80036; stroke-width: 1.0;" x1="284.5" x2="366.5" y1="52.7734" y2="52.7734"/><text fill="#000000" font-family="sans-serif" font-size="11" lengthAdjust="spacingAndGlyphs" textLength="65" x="289.5" y="66.9839">name : text</text><!--MD5=[0d63622358f95bfe0826679c8ae5824a]
class che--><rect fill="#FEFECE" filter="url(#f1ojxp4qmxaio)" height="91.1875" id="che" style="stroke: #A80036; stroke-width: 1.5;" width="149" x="98" y="134"/><text fill="#000000" font-family="sans-serif" font-size="12" lengthAdjust="spacingAndGlyphs" textLength="56" x="144.5" y="150.1387">Checklist</text><line style="stroke: #A80036; stroke-width: 1.5;" x1="99" x2="246" y1="157.9688" y2="157.9688"/><text fill="#000000" font-family="sans-serif" font-size="11" lengthAdjust="spacingAndGlyphs" textLength="62" x="104" y="172.1792">id : integer</text><line style="stroke: #A80036; stroke-width: 1.0;" x1="99" x2="246" y1="178.7734" y2="178.7734"/><text fill="#000000" font-family="sans-serif" font-size="11" lengthAdjust="spacingAndGlyphs" textLength="137" x="104" y="192.9839">organization_id : integer</text><text fill="#000000" font-family="sans-serif" font-size="11" lengthAdjust="spacingAndGlyphs" textLength="65" x="104" y="205.7886">name : text</text><text fill="#000000" font-family="sans-serif" font-size="11" lengthAdjust="spacingAndGlyphs" textLength="96" x="104" y="218.5933">description : text</text><!--MD5=[4022ebaa90ea056e2b4da54eb17e350b]
class tas--><rect fill="#FEFECE" filter="url(#f1ojxp4qmxaio)" height="91.1875" id="tas" style="stroke: #A80036; stroke-width: 1.5;" width="129" x="6" y="285"/><text fill="#000000" font-family="sans-serif" font-size="12" lengthAdjust="spacingAndGlyphs" textLength="29" x="56" y="301.1387">Task</text><line style="stroke: #A80036; stroke-width: 1.5;" x1="7" x2="134" y1="308.9688" y2="308.9688"/><text fill="#000000" font-family="sans-serif" font-size="11" lengthAdjust="spacingAndGlyphs" textLength="62" x="12" y="323.1792">id : integer</text><line style="stroke: #A80036; stroke-width: 1.0;" x1="7" x2="134" y1="329.7734" y2="329.7734"/><text fill="#000000" font-family="sans-serif" font-size="11" lengthAdjust="spacingAndGlyphs" textLength="117" x="12" y="343.9839">checklist_id : integer</text><text fill="#000000" font-family="sans-serif" font-size="11" lengthAdjust="spacingAndGlyphs" textLength="65" x="12" y="356.7886">name : text</text><text fill="#000000" font-family="sans-serif" font-size="11" lengthAdjust="spacingAndGlyphs" textLength="96" x="12" y="369.5933">description : text</text><!--MD5=[da3e092dd04cd3a43ec23b0ccc0a5737]
class use--><rect fill="#FEFECE" filter="url(#f1ojxp4qmxaio)" height="65.5781" id="use" style="stroke: #A80036; stroke-width: 1.5;" width="144" x="282.5" y="146.5"/><text fill="#000000" font-family="sans-serif" font-size="12" lengthAdjust="spacingAndGlyphs" textLength="29" x="340" y="162.6387">User</text><line style="stroke: #A80036; stroke-width: 1.5;" x1="283.5" x2="425.5" y1="170.4688" y2="170.4688"/><text fill="#000000" font-family="sans-serif" font-size="11" lengthAdjust="spacingAndGlyphs" textLength="62" x="288.5" y="184.6792">id : integer</text><line style="stroke: #A80036; stroke-width: 1.0;" x1="283.5" x2="425.5" y1="191.2734" y2="191.2734"/><text fill="#000000" font-family="sans-serif" font-size="11" lengthAdjust="spacingAndGlyphs" textLength="132" x="288.5" y="205.4839">...internal django fields</text><!--MD5=[485a597907ed351cb695f5781221c1fd]
class mem--><rect fill="#FEFECE" filter="url(#f1ojxp4qmxaio)" height="78.3828" id="mem" style="stroke: #A80036; stroke-width: 1.5;" width="160" x="405.5" y="291.5"/><text fill="#000000" font-family="sans-serif" font-size="12" lengthAdjust="spacingAndGlyphs" textLength="154" x="408.5" y="307.6387">OrganizationMembersihp</text><line style="stroke: #A80036; stroke-width: 1.5;" x1="406.5" x2="564.5" y1="315.4688" y2="315.4688"/><text fill="#000000" font-family="sans-serif" font-size="11" lengthAdjust="spacingAndGlyphs" textLength="62" x="411.5" y="329.6792">id : integer</text><line style="stroke: #A80036; stroke-width: 1.0;" x1="406.5" x2="564.5" y1="336.2734" y2="336.2734"/><text fill="#000000" font-family="sans-serif" font-size="11" lengthAdjust="spacingAndGlyphs" textLength="94" x="411.5" y="350.4839">user_id : integer</text><text fill="#000000" font-family="sans-serif" font-size="11" lengthAdjust="spacingAndGlyphs" textLength="137" x="411.5" y="363.2886">organization_id : integer</text><!--MD5=[8b64c1d5eba4442a785c8307027c2ea9]
class e_c--><rect fill="#FEFECE" filter="url(#f1ojxp4qmxaio)" height="78.3828" id="e_c" style="stroke: #A80036; stroke-width: 1.5;" width="129" x="170" y="291.5"/><text fill="#000000" font-family="sans-serif" font-size="12" lengthAdjust="spacingAndGlyphs" textLength="98" x="185.5" y="307.6387">Joined Checklist</text><line style="stroke: #A80036; stroke-width: 1.5;" x1="171" x2="298" y1="315.4688" y2="315.4688"/><text fill="#000000" font-family="sans-serif" font-size="11" lengthAdjust="spacingAndGlyphs" textLength="62" x="176" y="329.6792">id : integer</text><line style="stroke: #A80036; stroke-width: 1.0;" x1="171" x2="298" y1="336.2734" y2="336.2734"/><text fill="#000000" font-family="sans-serif" font-size="11" lengthAdjust="spacingAndGlyphs" textLength="94" x="176" y="350.4839">user_id : integer</text><text fill="#000000" font-family="sans-serif" font-size="11" lengthAdjust="spacingAndGlyphs" textLength="117" x="176" y="363.2886">checklist_id : integer</text><!--MD5=[4a9a1cc1e9849a614638b811d401b564]
class e_t--><rect fill="#FEFECE" filter="url(#f1ojxp4qmxaio)" height="91.1875" id="e_t" style="stroke: #A80036; stroke-width: 1.5;" width="106" x="158.5" y="436"/><text fill="#000000" font-family="sans-serif" font-size="12" lengthAdjust="spacingAndGlyphs" textLength="94" x="164.5" y="452.1387">Executing Task</text><line style="stroke: #A80036; stroke-width: 1.5;" x1="159.5" x2="263.5" y1="459.9688" y2="459.9688"/><text fill="#000000" font-family="sans-serif" font-size="11" lengthAdjust="spacingAndGlyphs" textLength="62" x="164.5" y="474.1792">id : integer</text><line style="stroke: #A80036; stroke-width: 1.0;" x1="159.5" x2="263.5" y1="480.7734" y2="480.7734"/><text fill="#000000" font-family="sans-serif" font-size="11" lengthAdjust="spacingAndGlyphs" textLength="94" x="164.5" y="494.9839">user_id : integer</text><text fill="#000000" font-family="sans-serif" font-size="11" lengthAdjust="spacingAndGlyphs" textLength="92" x="164.5" y="507.7886">task_id : integer</text><text fill="#000000" font-family="sans-serif" font-size="11" lengthAdjust="spacingAndGlyphs" textLength="69" x="164.5" y="520.5933">status : text</text><!--MD5=[2b1472ac96303e0e2a0eecc4d4173e3a]
link org to che--><path d="M325.5,82.0209 C325.5,82.0209 325.5,141 325.5,141 C325.5,141 255.2072,141 255.2072,141 " fill="none" id="org-che" style="stroke: #A80036; stroke-width: 1.0; stroke-dasharray: 7.0,7.0;"/><line style="stroke: #A80036; stroke-width: 1.0;" x1="255.2072" x2="247.2072" y1="141" y2="147"/><line style="stroke: #A80036; stroke-width: 1.0;" x1="255.2072" x2="247.2072" y1="141" y2="135"/><line style="stroke: #A80036; stroke-width: 1.0;" x1="255.2072" x2="247.2072" y1="141" y2="141"/><ellipse cx="261.2072" cy="141" fill="none" rx="4" ry="4" style="stroke: #A80036; stroke-width: 1.0;"/><line style="stroke: #A80036; stroke-width: 1.0;" x1="321.5" x2="329.5" y1="78.0209" y2="78.0209"/><line style="stroke: #A80036; stroke-width: 1.0;" x1="321.5" x2="329.5" y1="81.0209" y2="81.0209"/><line style="stroke: #A80036; stroke-width: 1.0;" x1="325.5" x2="325.5" y1="82.0209" y2="74.0209"/><!--MD5=[2634b589e62e9ba4b0b3e790015b2c59]
link che to tas--><path d="M116.5,233.2148 C116.5,233.2148 116.5,276.9406 116.5,276.9406 " fill="none" id="che-tas" style="stroke: #A80036; stroke-width: 1.0; stroke-dasharray: 7.0,7.0;"/><line style="stroke: #A80036; stroke-width: 1.0;" x1="116.5" x2="122.5" y1="276.9406" y2="284.9406"/><line style="stroke: #A80036; stroke-width: 1.0;" x1="116.5" x2="110.5" y1="276.9406" y2="284.9406"/><line style="stroke: #A80036; stroke-width: 1.0;" x1="116.5" x2="116.5" y1="276.9406" y2="284.9406"/><ellipse cx="116.5" cy="270.9406" fill="none" rx="4" ry="4" style="stroke: #A80036; stroke-width: 1.0;"/><line style="stroke: #A80036; stroke-width: 1.0;" x1="112.5" x2="120.5" y1="229.2148" y2="229.2148"/><line style="stroke: #A80036; stroke-width: 1.0;" x1="112.5" x2="120.5" y1="232.2148" y2="232.2148"/><line style="stroke: #A80036; stroke-width: 1.0;" x1="116.5" x2="116.5" y1="233.2148" y2="225.2148"/><!--MD5=[daf55e4ee0660f5c2a19846c4ef9a0c4]
link use to mem--><path d="M416,220.6376 C416,220.6376 416,283.2876 416,283.2876 " fill="none" id="use-mem" style="stroke: #A80036; stroke-width: 1.0; stroke-dasharray: 7.0,7.0;"/><line style="stroke: #A80036; stroke-width: 1.0;" x1="416" x2="416" y1="280.2876" y2="291.2876"/><ellipse cx="416" cy="280.2876" fill="none" rx="4" ry="4" style="stroke: #A80036; stroke-width: 1.0;"/><line style="stroke: #A80036; stroke-width: 1.0;" x1="420" x2="412" y1="287.2876" y2="287.2876"/><line style="stroke: #A80036; stroke-width: 1.0;" x1="412" x2="420" y1="216.6376" y2="216.6376"/><line style="stroke: #A80036; stroke-width: 1.0;" x1="412" x2="420" y1="219.6376" y2="219.6376"/><line style="stroke: #A80036; stroke-width: 1.0;" x1="416" x2="416" y1="220.6376" y2="212.6376"/><!--MD5=[db323e399f4ade3c801a2a283e73ebd0]
link org to mem--><path d="M375.6461,41 C375.6461,41 496,41 496,41 C496,41 496,283.4567 496,283.4567 " fill="none" id="org-mem" style="stroke: #A80036; stroke-width: 1.0; stroke-dasharray: 7.0,7.0;"/><line style="stroke: #A80036; stroke-width: 1.0;" x1="496" x2="502" y1="283.4567" y2="291.4567"/><line style="stroke: #A80036; stroke-width: 1.0;" x1="496" x2="490" y1="283.4567" y2="291.4567"/><line style="stroke: #A80036; stroke-width: 1.0;" x1="496" x2="496" y1="283.4567" y2="291.4567"/><ellipse cx="496" cy="277.4567" fill="none" rx="4" ry="4" style="stroke: #A80036; stroke-width: 1.0;"/><line style="stroke: #A80036; stroke-width: 1.0;" x1="371.6461" x2="371.6461" y1="45" y2="37"/><line style="stroke: #A80036; stroke-width: 1.0;" x1="374.6461" x2="374.6461" y1="45" y2="37"/><line style="stroke: #A80036; stroke-width: 1.0;" x1="375.6461" x2="367.6461" y1="41" y2="41"/><!--MD5=[e58cf23c7313d9ef30295d28939c331d]
link use to e_c--><path d="M290.75,220.6376 C290.75,220.6376 290.75,283.2876 290.75,283.2876 " fill="none" id="use-e_c" style="stroke: #A80036; stroke-width: 1.0; stroke-dasharray: 7.0,7.0;"/><line style="stroke: #A80036; stroke-width: 1.0;" x1="290.75" x2="296.75" y1="283.2876" y2="291.2876"/><line style="stroke: #A80036; stroke-width: 1.0;" x1="290.75" x2="284.75" y1="283.2876" y2="291.2876"/><line style="stroke: #A80036; stroke-width: 1.0;" x1="290.75" x2="290.75" y1="283.2876" y2="291.2876"/><ellipse cx="290.75" cy="277.2876" fill="none" rx="4" ry="4" style="stroke: #A80036; stroke-width: 1.0;"/><line style="stroke: #A80036; stroke-width: 1.0;" x1="286.75" x2="294.75" y1="216.6376" y2="216.6376"/><line style="stroke: #A80036; stroke-width: 1.0;" x1="286.75" x2="294.75" y1="219.6376" y2="219.6376"/><line style="stroke: #A80036; stroke-width: 1.0;" x1="290.75" x2="290.75" y1="220.6376" y2="212.6376"/><!--MD5=[11a6d32a709ad34204923d86e44c2c10]
link che to e_c--><path d="M208.5,233.2148 C208.5,233.2148 208.5,283.0684 208.5,283.0684 " fill="none" id="che-e_c" style="stroke: #A80036; stroke-width: 1.0; stroke-dasharray: 7.0,7.0;"/><line style="stroke: #A80036; stroke-width: 1.0;" x1="208.5" x2="214.5" y1="283.0684" y2="291.0684"/><line style="stroke: #A80036; stroke-width: 1.0;" x1="208.5" x2="202.5" y1="283.0684" y2="291.0684"/><line style="stroke: #A80036; stroke-width: 1.0;" x1="208.5" x2="208.5" y1="283.0684" y2="291.0684"/><ellipse cx="208.5" cy="277.0684" fill="none" rx="4" ry="4" style="stroke: #A80036; stroke-width: 1.0;"/><line style="stroke: #A80036; stroke-width: 1.0;" x1="204.5" x2="212.5" y1="229.2148" y2="229.2148"/><line style="stroke: #A80036; stroke-width: 1.0;" x1="204.5" x2="212.5" y1="232.2148" y2="232.2148"/><line style="stroke: #A80036; stroke-width: 1.0;" x1="208.5" x2="208.5" y1="233.2148" y2="225.2148"/><!--MD5=[0f25862030ae80945b4ea4d272dc9b28]
link use to e_t--><path d="M352.25,220.7381 C352.25,220.7381 352.25,482 352.25,482 C352.25,482 272.7115,482 272.7115,482 " fill="none" id="use-e_t" style="stroke: #A80036; stroke-width: 1.0; stroke-dasharray: 7.0,7.0;"/><line style="stroke: #A80036; stroke-width: 1.0;" x1="272.7115" x2="264.7115" y1="482" y2="488"/><line style="stroke: #A80036; stroke-width: 1.0;" x1="272.7115" x2="264.7115" y1="482" y2="476"/><line style="stroke: #A80036; stroke-width: 1.0;" x1="272.7115" x2="264.7115" y1="482" y2="482"/><ellipse cx="278.7115" cy="482" fill="none" rx="4" ry="4" style="stroke: #A80036; stroke-width: 1.0;"/><line style="stroke: #A80036; stroke-width: 1.0;" x1="348.25" x2="356.25" y1="216.7381" y2="216.7381"/><line style="stroke: #A80036; stroke-width: 1.0;" x1="348.25" x2="356.25" y1="219.7381" y2="219.7381"/><line style="stroke: #A80036; stroke-width: 1.0;" x1="352.25" x2="352.25" y1="220.7381" y2="212.7381"/><!--MD5=[181d125c2b86d5e414f6fec0a30e8d4c]
link tas to e_t--><path d="M143.1008,331 C143.1008,331 164.25,331 164.25,331 C164.25,331 164.25,427.9366 164.25,427.9366 " fill="none" id="tas-e_t" style="stroke: #A80036; stroke-width: 1.0; stroke-dasharray: 7.0,7.0;"/><line style="stroke: #A80036; stroke-width: 1.0;" x1="164.25" x2="170.25" y1="427.9366" y2="435.9366"/><line style="stroke: #A80036; stroke-width: 1.0;" x1="164.25" x2="158.25" y1="427.9366" y2="435.9366"/><line style="stroke: #A80036; stroke-width: 1.0;" x1="164.25" x2="164.25" y1="427.9366" y2="435.9366"/><ellipse cx="164.25" cy="421.9366" fill="none" rx="4" ry="4" style="stroke: #A80036; stroke-width: 1.0;"/><line style="stroke: #A80036; stroke-width: 1.0;" x1="139.1008" x2="139.1008" y1="335" y2="327"/><line style="stroke: #A80036; stroke-width: 1.0;" x1="142.1008" x2="142.1008" y1="335" y2="327"/><line style="stroke: #A80036; stroke-width: 1.0;" x1="143.1008" x2="135.1008" y1="331" y2="331"/><!--MD5=[086d8e0f8ab6a1cc1e8dff62594c9779]
@startuml

hide circle

skinparam linetype ortho

entity "Organization" as org {
  id : integer
  - -
  name : text
}

entity "Checklist" as che {
  id : integer
  - -
  organization_id : integer
  name : text
  description : text
}

entity "Task" as tas {
  id : integer
  - -
  checklist_id : integer
  name : text
  description : text
}

entity "User" as use {
  id : integer
  - -
  ...internal django fields
}

entity "OrganizationMembersihp" as mem {
  id : integer
  - -
  user_id : integer
  organization_id : integer
}

entity "Joined Checklist" as e_c {
  id : integer
  - -
  user_id : integer
  checklist_id : integer
}

entity "Executing Task" as e_t {
  id : integer
  - -
  user_id : integer
  task_id : integer
  status : text
}

org ||..o{ che
che ||..o{ tas


use ||..o| mem
org ||..o{ mem

use ||..o{ e_c
che ||..o{ e_c
use ||..o{ e_t
tas ||..o{ e_t

@enduml

PlantUML version 1.2020.06(Sun Apr 05 12:38:32 GMT 2020)
(GPL source distribution)
Java Runtime: OpenJDK Runtime Environment
JVM: OpenJDK 64-Bit Server VM
Java Version: 14-ea+33
Operating System: Linux
Default Encoding: UTF-8
Language: en
Country: US
--></g></svg>